<svg width="48" height="48" viewBox="0 0 48 48" fill="none" xmlns="http://www.w3.org/2000/svg">
  <!-- Background circle -->
  <circle cx="24" cy="24" r="24" fill="#FCD34D"/>
  
  <!-- Bee body -->
  <path d="M24 39C32.2843 39 39 32.2843 39 24C39 15.7157 32.2843 9 24 9C15.7157 9 9 15.7157 9 24C9 32.2843 15.7157 39 24 39Z" fill="#FDE68A"/>
  
  <!-- Stripes -->
  <path d="M16.5 21H31.5V24H16.5V21Z" fill="#92400E"/>
  <path d="M16.5 27H31.5V30H16.5V27Z" fill="#92400E"/>
  
  <!-- Wings -->
  <path d="M33 19.5C37.1421 19.5 40.5 17.4853 40.5 15C40.5 12.5147 37.1421 10.5 33 10.5C28.8579 10.5 25.5 12.5147 25.5 15C25.5 17.4853 28.8579 19.5 33 19.5Z" fill="white" fill-opacity="0.8"/>
  <path d="M15 19.5C19.1421 19.5 22.5 17.4853 22.5 15C22.5 12.5147 19.1421 10.5 15 10.5C10.8579 10.5 7.5 12.5147 7.5 15C7.5 17.4853 10.8579 19.5 15 19.5Z" fill="white" fill-opacity="0.8"/>
  
  <!-- Eyes -->
  <circle cx="19.5" cy="19.5" r="2.25" fill="#92400E"/>
  <circle cx="28.5" cy="19.5" r="2.25" fill="#92400E"/>
  
  <!-- Smile -->
  <path d="M19.5 27C19.5 27 21.75 30 24 30C26.25 30 28.5 27 28.5 27" stroke="#92400E" stroke-width="1.5" stroke-linecap="round"/>
  
  <!-- Antennae -->
  <path d="M21 15C21 15 19.5 12 18 10.5" stroke="#92400E" stroke-width="1.5" stroke-linecap="round"/>
  <path d="M27 15C27 15 28.5 12 30 10.5" stroke="#92400E" stroke-width="1.5" stroke-linecap="round"/>
  
  <!-- Buzz lines (animated) -->
  <path class="buzz-line" d="M37.5 15L40.5 12" stroke="#92400E" stroke-width="1.5" stroke-linecap="round"/>
  <path class="buzz-line" d="M39 22.5L43.5 22.5" stroke="#92400E" stroke-width="1.5" stroke-linecap="round"/>
  <path class="buzz-line" d="M37.5 30L40.5 33" stroke="#92400E" stroke-width="1.5" stroke-linecap="round"/>
  
  <style>
    @keyframes buzz {
      0% { transform: translateX(0); }
      25% { transform: translateX(-1px) rotate(-2deg); }
      75% { transform: translateX(1px) rotate(2deg); }
      100% { transform: translateX(0); }
    }
    .buzz-line {
      transform-origin: center;
      animation: buzz 0.5s infinite ease-in-out;
    }
    .buzz-line:nth-child(6) { animation-delay: 0.1s; }
    .buzz-line:nth-child(7) { animation-delay: 0.2s; }
    .buzz-line:nth-child(8) { animation-delay: 0.3s; }
  </style>
</svg> 