<svg width="32" height="32" viewBox="0 0 32 32" fill="none" xmlns="http://www.w3.org/2000/svg">
  <!-- Background circle -->
  <circle cx="16" cy="16" r="16" fill="#FCD34D"/>
  
  <!-- Bee body -->
  <path d="M16 26C21.5228 26 26 21.5228 26 16C26 10.4772 21.5228 6 16 6C10.4772 6 6 10.4772 6 16C6 21.5228 10.4772 26 16 26Z" fill="#FDE68A"/>
  
  <!-- Stripes -->
  <path d="M11 14H21V16H11V14Z" fill="#92400E"/>
  <path d="M11 18H21V20H11V18Z" fill="#92400E"/>
  
  <!-- Wings -->
  <path d="M22 13C24.7614 13 27 11.6569 27 10C27 8.34315 24.7614 7 22 7C19.2386 7 17 8.34315 17 10C17 11.6569 19.2386 13 22 13Z" fill="white" fill-opacity="0.8"/>
  <path d="M10 13C12.7614 13 15 11.6569 15 10C15 8.34315 12.7614 7 10 7C7.23858 7 5 8.34315 5 10C5 11.6569 7.23858 13 10 13Z" fill="white" fill-opacity="0.8"/>
  
  <!-- Eyes -->
  <circle cx="13" cy="13" r="1.5" fill="#92400E"/>
  <circle cx="19" cy="13" r="1.5" fill="#92400E"/>
  
  <!-- Smile -->
  <path d="M13 18C13 18 14.5 20 16 20C17.5 20 19 18 19 18" stroke="#92400E" stroke-width="1.5" stroke-linecap="round"/>
  
  <!-- Antennae -->
  <path d="M14 10C14 10 13 8.5 12 8" stroke="#92400E" stroke-width="1.5" stroke-linecap="round"/>
  <path d="M18 10C18 10 19 8.5 20 8" stroke="#92400E" stroke-width="1.5" stroke-linecap="round"/>
  
  <!-- Buzz lines (animated) -->
  <path class="buzz-line" d="M25 10L27 8" stroke="#92400E" stroke-width="1.5" stroke-linecap="round"/>
  <path class="buzz-line" d="M26 15L29 15" stroke="#92400E" stroke-width="1.5" stroke-linecap="round"/>
  <path class="buzz-line" d="M25 20L27 22" stroke="#92400E" stroke-width="1.5" stroke-linecap="round"/>
  
  <style>
    @keyframes buzz {
      0% { transform: translateX(0); }
      25% { transform: translateX(-1px) rotate(-2deg); }
      75% { transform: translateX(1px) rotate(2deg); }
      100% { transform: translateX(0); }
    }
    .buzz-line {
      transform-origin: center;
      animation: buzz 0.5s infinite ease-in-out;
    }
    .buzz-line:nth-child(6) { animation-delay: 0.1s; }
    .buzz-line:nth-child(7) { animation-delay: 0.2s; }
    .buzz-line:nth-child(8) { animation-delay: 0.3s; }
  </style>
</svg> 