<svg width="32" height="32" viewBox="0 0 32 32" fill="none" xmlns="http://www.w3.org/2000/svg">
  <!-- Background circle -->
  <circle cx="16" cy="16" r="16" fill="#22C55E"/>
  
  <!-- Frog face base -->
  <path d="M16 26C21.5228 26 26 21.5228 26 16C26 10.4772 21.5228 6 16 6C10.4772 6 6 10.4772 6 16C6 21.5228 10.4772 26 16 26Z" fill="#4ADE80"/>
  
  <!-- Eyes -->
  <circle cx="12" cy="14" r="3" fill="white"/>
  <circle cx="20" cy="14" r="3" fill="white"/>
  <circle cx="12" cy="14" r="1.5" fill="black"/>
  <circle cx="20" cy="14" r="1.5" fill="black"/>
  
  <!-- Wide mouth -->
  <path d="M11 19C11 19 13.5 23 16 23C18.5 23 21 19 21 19" stroke="white" stroke-width="2" stroke-linecap="round"/>
  
  <!-- Buzz lines (animated) -->
  <path class="buzz-line" d="M26 10L28 8" stroke="white" stroke-width="2" stroke-linecap="round"/>
  <path class="buzz-line" d="M27 15L30 15" stroke="white" stroke-width="2" stroke-linecap="round"/>
  <path class="buzz-line" d="M26 20L28 22" stroke="white" stroke-width="2" stroke-linecap="round"/>
  
  <style>
    @keyframes buzz {
      0% { transform: translateX(0); }
      25% { transform: translateX(-1px) rotate(-2deg); }
      75% { transform: translateX(1px) rotate(2deg); }
      100% { transform: translateX(0); }
    }
    .buzz-line {
      transform-origin: center;
      animation: buzz 0.5s infinite ease-in-out;
    }
    .buzz-line:nth-child(6) { animation-delay: 0.1s; }
    .buzz-line:nth-child(7) { animation-delay: 0.2s; }
    .buzz-line:nth-child(8) { animation-delay: 0.3s; }
  </style>
</svg> 