<svg width="40" height="40" viewBox="0 0 40 40" fill="none" xmlns="http://www.w3.org/2000/svg">
  <!-- Background circle -->
  <circle cx="20" cy="20" r="20" fill="#FCD34D"/>
  
  <!-- Bee body -->
  <path d="M20 32C26.6274 32 32 26.6274 32 20C32 13.3726 26.6274 8 20 8C13.3726 8 8 13.3726 8 20C8 26.6274 13.3726 32 20 32Z" fill="#FDE68A"/>
  
  <!-- Stripes -->
  <path d="M14 18H26V20H14V18Z" fill="#92400E"/>
  <path d="M14 22H26V24H14V22Z" fill="#92400E"/>
  
  <!-- Wings -->
  <path d="M28 16C31.3137 16 34 14.2091 34 12C34 9.79086 31.3137 8 28 8C24.6863 8 22 9.79086 22 12C22 14.2091 24.6863 16 28 16Z" fill="white" fill-opacity="0.8"/>
  <path d="M12 16C15.3137 16 18 14.2091 18 12C18 9.79086 15.3137 8 12 8C8.68629 8 6 9.79086 6 12C6 14.2091 8.68629 16 12 16Z" fill="white" fill-opacity="0.8"/>
  
  <!-- Eyes -->
  <circle cx="16" cy="16" r="2" fill="#92400E"/>
  <circle cx="24" cy="16" r="2" fill="#92400E"/>
  
  <!-- Smile -->
  <path d="M16 22C16 22 18 25 20 25C22 25 24 22 24 22" stroke="#92400E" stroke-width="1.5" stroke-linecap="round"/>
  
  <!-- Antennae -->
  <path d="M17 12C17 12 16 10 15 9" stroke="#92400E" stroke-width="1.5" stroke-linecap="round"/>
  <path d="M23 12C23 12 24 10 25 9" stroke="#92400E" stroke-width="1.5" stroke-linecap="round"/>
  
  <!-- Buzz lines (animated) -->
  <path class="buzz-line" d="M32 12L35 9" stroke="#92400E" stroke-width="1.5" stroke-linecap="round"/>
  <path class="buzz-line" d="M34 18L38 18" stroke="#92400E" stroke-width="1.5" stroke-linecap="round"/>
  <path class="buzz-line" d="M33 24L36 27" stroke="#92400E" stroke-width="1.5" stroke-linecap="round"/>
  
  <style>
    @keyframes buzz {
      0% { transform: translateX(0); }
      25% { transform: translateX(-1px) rotate(-2deg); }
      75% { transform: translateX(1px) rotate(2deg); }
      100% { transform: translateX(0); }
    }
    .buzz-line {
      transform-origin: center;
      animation: buzz 0.5s infinite ease-in-out;
    }
    .buzz-line:nth-child(6) { animation-delay: 0.1s; }
    .buzz-line:nth-child(7) { animation-delay: 0.2s; }
    .buzz-line:nth-child(8) { animation-delay: 0.3s; }
  </style>
</svg> 