<svg width="40" height="40" viewBox="0 0 40 40" fill="none" xmlns="http://www.w3.org/2000/svg">
  <!-- Background circle -->
  <circle cx="20" cy="20" r="20" fill="#22C55E"/>
  
  <!-- Frog face base -->
  <path d="M20 32C26.6274 32 32 26.6274 32 20C32 13.3726 26.6274 8 20 8C13.3726 8 8 13.3726 8 20C8 26.6274 13.3726 32 20 32Z" fill="#4ADE80"/>
  
  <!-- Eyes -->
  <circle cx="15" cy="17" r="4" fill="white"/>
  <circle cx="25" cy="17" r="4" fill="white"/>
  <circle cx="15" cy="17" r="2" fill="black"/>
  <circle cx="25" cy="17" r="2" fill="black"/>
  
  <!-- Wide mouth -->
  <path d="M14 23C14 23 17 28 20 28C23 28 26 23 26 23" stroke="white" stroke-width="2" stroke-linecap="round"/>
  
  <!-- Buzz lines (animated) -->
  <path class="buzz-line" d="M32 12L35 9" stroke="white" stroke-width="2" stroke-linecap="round"/>
  <path class="buzz-line" d="M34 18L38 18" stroke="white" stroke-width="2" stroke-linecap="round"/>
  <path class="buzz-line" d="M33 24L36 27" stroke="white" stroke-width="2" stroke-linecap="round"/>
  
  <style>
    @keyframes buzz {
      0% { transform: translateX(0); }
      25% { transform: translateX(-1px) rotate(-2deg); }
      75% { transform: translateX(1px) rotate(2deg); }
      100% { transform: translateX(0); }
    }
    .buzz-line {
      transform-origin: center;
      animation: buzz 0.5s infinite ease-in-out;
    }
    .buzz-line:nth-child(6) { animation-delay: 0.1s; }
    .buzz-line:nth-child(7) { animation-delay: 0.2s; }
    .buzz-line:nth-child(8) { animation-delay: 0.3s; }
  </style>
</svg> 